<svg xmlns="http://www.w3.org/2000/svg" xmlns:xlink="http://www.w3.org/1999/xlink" width="222" zoomAndPan="magnify" viewBox="0 0 166.5 92.249997" height="123" preserveAspectRatio="xMidYMid meet" version="1.0"><defs><clipPath id="368fd80928"><path d="M 0.421875 19 L 60 19 L 60 90.019531 L 0.421875 90.019531 Z M 0.421875 19 " clip-rule="nonzero"/></clipPath><clipPath id="f279de0ec5"><path d="M 19 0 L 90 0 L 90 90.019531 L 19 90.019531 Z M 19 0 " clip-rule="nonzero"/></clipPath><clipPath id="54cab5d57a"><path d="M 75 0 L 146 0 L 146 90.019531 L 75 90.019531 Z M 75 0 " clip-rule="nonzero"/></clipPath><clipPath id="fb1d7d0e1f"><path d="M 128 52 L 165.582031 52 L 165.582031 90 L 128 90 Z M 128 52 " clip-rule="nonzero"/></clipPath></defs><g clip-path="url(#368fd80928)"><path fill="#3d3d3d" d="M 11.183594 22.054688 C 11.792969 21.699219 12.417969 21.378906 13.058594 21.085938 C 13.703125 20.796875 14.355469 20.539062 15.023438 20.3125 C 15.691406 20.085938 16.367188 19.890625 17.054688 19.730469 C 17.738281 19.570312 18.433594 19.445312 19.128906 19.351562 C 19.828125 19.261719 20.53125 19.203125 21.234375 19.179688 C 21.9375 19.15625 22.644531 19.167969 23.347656 19.214844 C 24.050781 19.257812 24.75 19.339844 25.445312 19.453125 C 26.140625 19.570312 26.828125 19.71875 27.507812 19.898438 C 28.1875 20.082031 28.859375 20.296875 29.519531 20.546875 C 30.179688 20.792969 30.824219 21.074219 31.457031 21.386719 C 32.085938 21.695312 32.703125 22.039062 33.300781 22.410156 C 33.898438 22.78125 34.476562 23.183594 35.039062 23.613281 C 35.597656 24.042969 36.132812 24.496094 36.648438 24.980469 C 37.160156 25.460938 37.652344 25.964844 38.117188 26.496094 C 38.578125 27.027344 39.015625 27.578125 39.429688 28.152344 C 39.839844 28.722656 40.21875 29.316406 40.570312 29.925781 L 56.683594 57.855469 C 57.035156 58.464844 57.359375 59.09375 57.648438 59.734375 C 57.941406 60.375 58.199219 61.03125 58.425781 61.695312 C 58.652344 62.363281 58.847656 63.042969 59.007812 63.726562 C 59.167969 64.414062 59.292969 65.105469 59.382812 65.804688 C 59.476562 66.503906 59.535156 67.203125 59.558594 67.910156 C 59.582031 68.613281 59.570312 69.316406 59.523438 70.019531 C 59.476562 70.722656 59.398438 71.421875 59.28125 72.117188 C 59.167969 72.8125 59.019531 73.5 58.835938 74.183594 C 58.65625 74.863281 58.4375 75.53125 58.191406 76.191406 C 57.941406 76.851562 57.664062 77.496094 57.351562 78.128906 C 57.039062 78.761719 56.699219 79.375 56.324219 79.976562 C 55.953125 80.574219 55.554688 81.152344 55.125 81.710938 C 54.695312 82.269531 54.238281 82.808594 53.757812 83.320312 C 53.277344 83.835938 52.769531 84.324219 52.238281 84.789062 C 51.710938 85.253906 51.160156 85.691406 50.585938 86.101562 C 50.011719 86.511719 49.421875 86.894531 48.8125 87.246094 C 48.199219 87.597656 47.574219 87.921875 46.933594 88.210938 C 46.292969 88.503906 45.636719 88.761719 44.96875 88.988281 C 44.300781 89.214844 43.625 89.40625 42.941406 89.566406 C 42.253906 89.726562 41.5625 89.855469 40.863281 89.945312 C 40.164062 90.039062 39.460938 90.097656 38.757812 90.121094 C 38.054688 90.144531 37.351562 90.132812 36.648438 90.085938 C 35.945312 90.039062 35.246094 89.960938 34.550781 89.84375 C 33.855469 89.730469 33.164062 89.582031 32.484375 89.398438 C 31.804688 89.214844 31.132812 89 30.476562 88.753906 C 29.816406 88.503906 29.167969 88.226562 28.539062 87.914062 C 27.90625 87.601562 27.289062 87.261719 26.691406 86.886719 C 26.09375 86.515625 25.515625 86.113281 24.957031 85.6875 C 24.398438 85.257812 23.859375 84.800781 23.347656 84.320312 C 22.832031 83.839844 22.34375 83.332031 21.878906 82.800781 C 21.414062 82.273438 20.976562 81.722656 20.566406 81.148438 C 20.15625 80.574219 19.773438 79.984375 19.421875 79.375 L 3.308594 51.433594 C 2.957031 50.820312 2.636719 50.195312 2.34375 49.554688 C 2.054688 48.914062 1.792969 48.257812 1.566406 47.589844 C 1.339844 46.921875 1.148438 46.246094 0.988281 45.5625 C 0.828125 44.875 0.699219 44.183594 0.609375 43.484375 C 0.515625 42.785156 0.457031 42.082031 0.4375 41.378906 C 0.414062 40.675781 0.421875 39.972656 0.46875 39.269531 C 0.515625 38.566406 0.597656 37.867188 0.710938 37.171875 C 0.824219 36.476562 0.972656 35.785156 1.15625 35.105469 C 1.339844 34.425781 1.554688 33.753906 1.800781 33.097656 C 2.050781 32.4375 2.332031 31.789062 2.640625 31.160156 C 2.953125 30.527344 3.296875 29.910156 3.667969 29.3125 C 4.039062 28.714844 4.441406 28.136719 4.871094 27.578125 C 5.296875 27.019531 5.753906 26.480469 6.234375 25.96875 C 6.71875 25.453125 7.222656 24.964844 7.753906 24.5 C 8.28125 24.035156 8.835938 23.597656 9.40625 23.1875 C 9.980469 22.777344 10.570312 22.394531 11.183594 22.042969 Z M 11.183594 22.054688 " fill-opacity="1" fill-rule="evenodd"/></g><g clip-path="url(#f279de0ec5)"><path fill="#3d3d3d" d="M 78.496094 3.097656 C 77.882812 2.746094 77.257812 2.421875 76.617188 2.132812 C 75.976562 1.839844 75.320312 1.582031 74.652344 1.355469 C 73.984375 1.128906 73.308594 0.933594 72.625 0.773438 C 71.9375 0.613281 71.246094 0.488281 70.546875 0.394531 C 69.847656 0.304688 69.144531 0.246094 68.441406 0.222656 C 67.738281 0.199219 67.035156 0.210938 66.332031 0.257812 C 65.628906 0.304688 64.929688 0.382812 64.234375 0.496094 C 63.539062 0.613281 62.847656 0.761719 62.167969 0.945312 C 61.488281 1.125 60.816406 1.339844 60.160156 1.589844 C 59.5 1.835938 58.851562 2.117188 58.222656 2.429688 C 57.589844 2.742188 56.972656 3.082031 56.375 3.453125 C 55.777344 3.828125 55.199219 4.226562 54.640625 4.65625 C 54.082031 5.085938 53.542969 5.539062 53.03125 6.023438 C 52.515625 6.503906 52.027344 7.011719 51.5625 7.539062 C 51.097656 8.070312 50.660156 8.621094 50.25 9.195312 C 49.839844 9.765625 49.457031 10.359375 49.105469 10.96875 L 22.046875 57.855469 C 21.695312 58.464844 21.371094 59.09375 21.082031 59.734375 C 20.789062 60.375 20.53125 61.03125 20.304688 61.699219 C 20.078125 62.363281 19.886719 63.042969 19.726562 63.726562 C 19.566406 64.414062 19.441406 65.105469 19.347656 65.804688 C 19.253906 66.503906 19.199219 67.203125 19.175781 67.910156 C 19.152344 68.613281 19.164062 69.316406 19.210938 70.019531 C 19.253906 70.722656 19.335938 71.421875 19.449219 72.117188 C 19.566406 72.8125 19.714844 73.5 19.894531 74.179688 C 20.078125 74.863281 20.292969 75.53125 20.542969 76.191406 C 20.789062 76.851562 21.070312 77.496094 21.382812 78.128906 C 21.691406 78.761719 22.035156 79.375 22.40625 79.972656 C 22.777344 80.570312 23.179688 81.152344 23.609375 81.710938 C 24.035156 82.269531 24.492188 82.804688 24.972656 83.320312 C 25.457031 83.835938 25.960938 84.324219 26.492188 84.789062 C 27.019531 85.253906 27.570312 85.691406 28.144531 86.101562 C 28.714844 86.511719 29.308594 86.894531 29.917969 87.246094 C 30.527344 87.597656 31.152344 87.917969 31.796875 88.210938 C 32.4375 88.5 33.09375 88.757812 33.757812 88.984375 C 34.425781 89.210938 35.101562 89.40625 35.789062 89.566406 C 36.476562 89.726562 37.167969 89.851562 37.867188 89.945312 C 38.566406 90.035156 39.265625 90.09375 39.972656 90.117188 C 40.675781 90.140625 41.378906 90.128906 42.082031 90.082031 C 42.785156 90.035156 43.484375 89.957031 44.179688 89.839844 C 44.875 89.726562 45.5625 89.578125 46.242188 89.394531 C 46.921875 89.210938 47.59375 88.996094 48.253906 88.75 C 48.914062 88.5 49.558594 88.222656 50.191406 87.910156 C 50.820312 87.597656 51.4375 87.257812 52.035156 86.882812 C 52.632812 86.511719 53.210938 86.113281 53.773438 85.683594 C 54.332031 85.253906 54.867188 84.800781 55.382812 84.316406 C 55.894531 83.835938 56.386719 83.332031 56.851562 82.800781 C 57.316406 82.269531 57.753906 81.71875 58.164062 81.148438 C 58.574219 80.574219 58.953125 79.984375 59.308594 79.375 L 86.367188 32.476562 C 86.71875 31.867188 87.042969 31.238281 87.332031 30.597656 C 87.625 29.957031 87.882812 29.300781 88.109375 28.636719 C 88.339844 27.96875 88.53125 27.292969 88.691406 26.605469 C 88.851562 25.917969 88.980469 25.226562 89.070312 24.527344 C 89.164062 23.828125 89.222656 23.128906 89.246094 22.421875 C 89.269531 21.71875 89.257812 21.015625 89.210938 20.3125 C 89.164062 19.609375 89.085938 18.910156 88.96875 18.214844 C 88.855469 17.519531 88.707031 16.828125 88.523438 16.148438 C 88.34375 15.46875 88.125 14.796875 87.878906 14.136719 C 87.628906 13.480469 87.351562 12.832031 87.039062 12.199219 C 86.726562 11.570312 86.382812 10.953125 86.011719 10.355469 C 85.640625 9.757812 85.238281 9.179688 84.808594 8.617188 C 84.382812 8.058594 83.925781 7.523438 83.441406 7.007812 C 82.960938 6.496094 82.457031 6.003906 81.925781 5.542969 C 81.394531 5.078125 80.84375 4.640625 80.269531 4.230469 C 79.695312 3.820312 79.105469 3.4375 78.496094 3.085938 Z M 78.496094 3.097656 " fill-opacity="1" fill-rule="evenodd"/></g><g clip-path="url(#54cab5d57a)"><path fill="#e11d48" d="M 134.640625 3.097656 C 134.027344 2.746094 133.402344 2.421875 132.761719 2.132812 C 132.121094 1.839844 131.464844 1.582031 130.796875 1.355469 C 130.128906 1.128906 129.453125 0.933594 128.769531 0.773438 C 128.082031 0.613281 127.390625 0.488281 126.691406 0.394531 C 125.992188 0.304688 125.289062 0.246094 124.585938 0.222656 C 123.882812 0.199219 123.179688 0.210938 122.476562 0.257812 C 121.773438 0.304688 121.074219 0.382812 120.378906 0.496094 C 119.683594 0.613281 118.992188 0.761719 118.3125 0.945312 C 117.632812 1.125 116.960938 1.339844 116.304688 1.589844 C 115.644531 1.835938 114.996094 2.117188 114.367188 2.429688 C 113.734375 2.742188 113.117188 3.082031 112.519531 3.453125 C 111.921875 3.828125 111.34375 4.226562 110.785156 4.65625 C 110.226562 5.085938 109.6875 5.539062 109.175781 6.023438 C 108.660156 6.503906 108.171875 7.011719 107.707031 7.539062 C 107.242188 8.070312 106.804688 8.621094 106.394531 9.195312 C 105.984375 9.765625 105.601562 10.359375 105.25 10.96875 L 78.191406 57.855469 C 77.835938 58.464844 77.515625 59.09375 77.226562 59.734375 C 76.933594 60.375 76.675781 61.03125 76.449219 61.695312 C 76.222656 62.363281 76.027344 63.042969 75.867188 63.726562 C 75.707031 64.414062 75.582031 65.105469 75.488281 65.804688 C 75.398438 66.503906 75.339844 67.203125 75.316406 67.910156 C 75.292969 68.613281 75.304688 69.316406 75.351562 70.019531 C 75.394531 70.722656 75.476562 71.421875 75.589844 72.117188 C 75.707031 72.8125 75.855469 73.5 76.035156 74.183594 C 76.21875 74.863281 76.433594 75.53125 76.683594 76.191406 C 76.929688 76.851562 77.210938 77.496094 77.523438 78.128906 C 77.832031 78.761719 78.175781 79.375 78.546875 79.976562 C 78.921875 80.574219 79.320312 81.152344 79.75 81.710938 C 80.179688 82.269531 80.632812 82.808594 81.117188 83.320312 C 81.597656 83.835938 82.101562 84.324219 82.632812 84.789062 C 83.164062 85.253906 83.714844 85.691406 84.289062 86.101562 C 84.859375 86.511719 85.453125 86.894531 86.0625 87.246094 C 86.671875 87.597656 87.296875 87.921875 87.941406 88.210938 C 88.582031 88.503906 89.238281 88.761719 89.902344 88.988281 C 90.570312 89.214844 91.246094 89.40625 91.933594 89.566406 C 92.621094 89.726562 93.3125 89.855469 94.011719 89.945312 C 94.710938 90.039062 95.410156 90.097656 96.117188 90.121094 C 96.820312 90.144531 97.523438 90.132812 98.226562 90.085938 C 98.929688 90.039062 99.628906 89.960938 100.324219 89.84375 C 101.019531 89.730469 101.707031 89.582031 102.386719 89.398438 C 103.070312 89.214844 103.738281 89 104.398438 88.753906 C 105.058594 88.503906 105.703125 88.226562 106.335938 87.914062 C 106.96875 87.601562 107.582031 87.261719 108.179688 86.886719 C 108.78125 86.515625 109.359375 86.113281 109.917969 85.6875 C 110.476562 85.257812 111.011719 84.800781 111.527344 84.320312 C 112.042969 83.839844 112.53125 83.332031 112.996094 82.800781 C 113.460938 82.273438 113.898438 81.722656 114.308594 81.148438 C 114.71875 80.574219 115.101562 79.984375 115.453125 79.375 L 142.523438 32.488281 C 142.875 31.875 143.195312 31.25 143.488281 30.609375 C 143.777344 29.96875 144.039062 29.3125 144.265625 28.644531 C 144.492188 27.976562 144.683594 27.300781 144.84375 26.613281 C 145.003906 25.929688 145.132812 25.238281 145.222656 24.539062 C 145.316406 23.839844 145.371094 23.136719 145.394531 22.433594 C 145.417969 21.730469 145.40625 21.027344 145.363281 20.320312 C 145.316406 19.617188 145.234375 18.917969 145.121094 18.222656 C 145.007812 17.527344 144.859375 16.839844 144.675781 16.160156 C 144.492188 15.480469 144.277344 14.808594 144.03125 14.148438 C 143.78125 13.492188 143.5 12.84375 143.191406 12.214844 C 142.878906 11.582031 142.535156 10.964844 142.164062 10.367188 C 141.792969 9.769531 141.390625 9.191406 140.960938 8.632812 C 140.535156 8.070312 140.078125 7.535156 139.597656 7.019531 C 139.113281 6.507812 138.609375 6.019531 138.078125 5.554688 C 137.546875 5.089844 136.996094 4.652344 136.425781 4.242188 C 135.851562 3.832031 135.261719 3.449219 134.648438 3.097656 Z M 134.640625 3.097656 " fill-opacity="1" fill-rule="evenodd"/></g><g clip-path="url(#fb1d7d0e1f)"><path fill="#e11d48" d="M 128.308594 71.070312 C 128.308594 70.460938 128.339844 69.855469 128.398438 69.25 C 128.460938 68.644531 128.546875 68.042969 128.667969 67.445312 C 128.785156 66.847656 128.933594 66.257812 129.109375 65.675781 C 129.285156 65.09375 129.492188 64.519531 129.726562 63.957031 C 129.957031 63.394531 130.21875 62.84375 130.503906 62.308594 C 130.792969 61.769531 131.105469 61.25 131.441406 60.742188 C 131.78125 60.238281 132.144531 59.75 132.53125 59.277344 C 132.914062 58.808594 133.324219 58.355469 133.753906 57.925781 C 134.183594 57.496094 134.636719 57.085938 135.105469 56.703125 C 135.578125 56.316406 136.066406 55.953125 136.570312 55.613281 C 137.078125 55.277344 137.597656 54.964844 138.136719 54.675781 C 138.671875 54.390625 139.222656 54.128906 139.785156 53.898438 C 140.347656 53.664062 140.921875 53.460938 141.503906 53.28125 C 142.085938 53.105469 142.675781 52.957031 143.273438 52.839844 C 143.871094 52.71875 144.472656 52.632812 145.078125 52.570312 C 145.683594 52.511719 146.289062 52.480469 146.898438 52.480469 C 147.507812 52.480469 148.113281 52.511719 148.722656 52.570312 C 149.328125 52.632812 149.929688 52.71875 150.523438 52.839844 C 151.121094 52.957031 151.710938 53.105469 152.292969 53.28125 C 152.878906 53.460938 153.449219 53.664062 154.011719 53.898438 C 154.574219 54.128906 155.125 54.390625 155.660156 54.675781 C 156.199219 54.964844 156.71875 55.277344 157.226562 55.613281 C 157.730469 55.953125 158.222656 56.316406 158.691406 56.703125 C 159.160156 57.085938 159.613281 57.496094 160.042969 57.925781 C 160.472656 58.355469 160.882812 58.808594 161.269531 59.277344 C 161.65625 59.75 162.015625 60.238281 162.355469 60.742188 C 162.691406 61.25 163.003906 61.769531 163.292969 62.308594 C 163.578125 62.84375 163.839844 63.394531 164.074219 63.957031 C 164.304688 64.519531 164.511719 65.09375 164.6875 65.675781 C 164.863281 66.257812 165.011719 66.847656 165.128906 67.445312 C 165.25 68.042969 165.339844 68.644531 165.398438 69.25 C 165.457031 69.855469 165.488281 70.460938 165.488281 71.070312 C 165.488281 71.679688 165.457031 72.285156 165.398438 72.894531 C 165.339844 73.5 165.25 74.101562 165.128906 74.699219 C 165.011719 75.292969 164.863281 75.882812 164.6875 76.46875 C 164.511719 77.050781 164.304688 77.621094 164.074219 78.183594 C 163.839844 78.746094 163.578125 79.296875 163.292969 79.832031 C 163.003906 80.371094 162.691406 80.890625 162.355469 81.398438 C 162.015625 81.90625 161.65625 82.394531 161.269531 82.863281 C 160.882812 83.335938 160.472656 83.785156 160.042969 84.214844 C 159.613281 84.644531 159.160156 85.054688 158.691406 85.441406 C 158.222656 85.828125 157.730469 86.1875 157.226562 86.527344 C 156.71875 86.863281 156.199219 87.175781 155.660156 87.464844 C 155.125 87.75 154.574219 88.011719 154.011719 88.246094 C 153.449219 88.476562 152.878906 88.683594 152.292969 88.859375 C 151.710938 89.035156 151.121094 89.183594 150.523438 89.300781 C 149.929688 89.421875 149.328125 89.511719 148.722656 89.570312 C 148.113281 89.628906 147.507812 89.660156 146.898438 89.660156 C 146.289062 89.660156 145.683594 89.628906 145.078125 89.570312 C 144.472656 89.511719 143.871094 89.421875 143.273438 89.300781 C 142.675781 89.183594 142.085938 89.035156 141.503906 88.859375 C 140.921875 88.683594 140.347656 88.476562 139.785156 88.246094 C 139.222656 88.011719 138.671875 87.75 138.136719 87.464844 C 137.597656 87.175781 137.078125 86.863281 136.570312 86.527344 C 136.066406 86.1875 135.578125 85.828125 135.105469 85.441406 C 134.636719 85.054688 134.183594 84.644531 133.753906 84.214844 C 133.324219 83.785156 132.914062 83.335938 132.53125 82.863281 C 132.144531 82.394531 131.78125 81.90625 131.441406 81.398438 C 131.105469 80.890625 130.792969 80.371094 130.503906 79.832031 C 130.21875 79.296875 129.957031 78.746094 129.726562 78.183594 C 129.492188 77.621094 129.285156 77.050781 129.109375 76.46875 C 128.933594 75.882812 128.785156 75.292969 128.667969 74.699219 C 128.546875 74.101562 128.460938 73.5 128.398438 72.894531 C 128.339844 72.285156 128.308594 71.679688 128.308594 71.070312 Z M 128.308594 71.070312 " fill-opacity="1" fill-rule="evenodd"/></g></svg>